<?xml version="1.0" encoding="UTF-8" standalone="no"?>
<!-- Created with Inkscape (http://www.inkscape.org/) -->

<svg
   xmlns:dc="http://purl.org/dc/elements/1.1/"
   xmlns:cc="http://creativecommons.org/ns#"
   xmlns:rdf="http://www.w3.org/1999/02/22-rdf-syntax-ns#"
   xmlns:svg="http://www.w3.org/2000/svg"
   xmlns="http://www.w3.org/2000/svg"
   version="1.1"
   width="100"
   height="100"
   viewBox="0 0 100 100"
   id="Layer_1"
   xml:space="preserve"><metadata
   id="metadata9"><rdf:RDF><cc:Work
       rdf:about=""><dc:format>image/svg+xml</dc:format><dc:type
         rdf:resource="http://purl.org/dc/dcmitype/StillImage" /><dc:title></dc:title></cc:Work></rdf:RDF></metadata><defs
   id="defs7" />
<path
   d="M 97.964,46.548 C 97.098,45.528 76.427,21.603 50,21.603 c -26.427,0 -47.098,23.925 -47.965,24.946 -1.701,2 -1.701,4.902 10e-4,6.903 0.866,1.02 21.537,24.945 47.964,24.945 26.427,0 47.098,-23.926 47.965,-24.946 1.701,-2 1.701,-4.902 -0.001,-6.903 z M 58.073,35.975 c 1.777,-0.97 4.255,0.143 5.534,2.485 1.279,2.343 0.875,5.029 -0.902,5.999 -1.777,0.971 -4.255,-0.143 -5.535,-2.485 -1.279,-2.343 -0.875,-5.029 0.903,-5.999 z M 50,69.729 C 31.54,69.729 16.005,55.553 10.628,50 14.259,46.249 22.526,38.571 33.195,33.979 31.114,37.145 29.894,40.928 29.894,45 c 0,11.104 9.001,20.105 20.105,20.105 11.104,0 20.106,-9.001 20.106,-20.105 0,-4.072 -1.219,-7.855 -3.3,-11.021 C 77.474,38.572 85.741,46.25 89.372,50 83.995,55.555 68.46,69.729 50,69.729 z"
   id="path3" />
</svg>