<?xml version="1.0" encoding="UTF-8" standalone="no"?>
<!-- Created with Inkscape (http://www.inkscape.org/) -->

<svg
   xmlns:dc="http://purl.org/dc/elements/1.1/"
   xmlns:cc="http://creativecommons.org/ns#"
   xmlns:rdf="http://www.w3.org/1999/02/22-rdf-syntax-ns#"
   xmlns:svg="http://www.w3.org/2000/svg"
   xmlns="http://www.w3.org/2000/svg"
   version="1.1"
   width="100"
   height="100"
   viewBox="0 0 100 100"
   id="Layer_3"
   xml:space="preserve"><metadata
   id="metadata15"><rdf:RDF><cc:Work
       rdf:about=""><dc:format>image/svg+xml</dc:format><dc:type
         rdf:resource="http://purl.org/dc/dcmitype/StillImage" /><dc:title></dc:title></cc:Work></rdf:RDF></metadata><defs
   id="defs13" />
<g
   id="g3">
	<path
   d="M 70.082,45.475 50.474,65.082 C 61.198,64.831 69.831,56.197 70.082,45.475 z"
   id="path5"
   style="fill:#FFFFFF" />
	<path
   d="m 97.964,46.548 c -0.45,-0.529 -6.245,-7.23 -15.403,-13.554 l -6.2,6.2 C 82.351,43.148 86.92,47.469 89.372,50 83.995,55.555 68.46,69.729 50,69.729 c -1.334,0 -2.651,-0.082 -3.952,-0.222 l -7.439,7.439 c 3.639,0.909 7.449,1.45 11.391,1.45 26.427,0 47.098,-23.926 47.965,-24.946 1.701,-1.999 1.701,-4.901 -0.001,-6.902 z"
   id="path7"
   style="fill:#FFFFFF" />
	<path
   d="m 91.411,16.66 c 0,-0.266 -0.105,-0.52 -0.293,-0.707 l -7.071,-7.07 c -0.391,-0.391 -1.023,-0.391 -1.414,0 L 66.804,24.711 C 61.602,22.818 55.949,21.603 50,21.603 c -26.427,0 -47.098,23.926 -47.965,24.946 -1.701,2 -1.701,4.902 10e-4,6.903 0.517,0.607 8.083,9.354 19.707,16.32 L 8.883,82.632 C 8.695,82.82 8.59,83.073 8.59,83.339 c 0,0.266 0.105,0.52 0.293,0.707 l 7.071,7.07 c 0.195,0.195 0.451,0.293 0.707,0.293 0.256,0 0.512,-0.098 0.707,-0.293 l 73.75,-73.75 c 0.187,-0.186 0.293,-0.44 0.293,-0.706 z M 10.628,50 C 14.259,46.249 22.526,38.571 33.195,33.979 31.114,37.145 29.894,40.928 29.894,45 c 0,4.665 1.601,8.945 4.27,12.351 L 28.04,63.475 C 19.888,58.955 13.649,53.12 10.628,50 z"
   id="path9"
   style="fill:#FFFFFF" />
</g>
</svg>
