<?xml version="1.0" encoding="UTF-8" standalone="no"?>
<!-- Created with Inkscape (http://www.inkscape.org/) -->

<svg
   xmlns:dc="http://purl.org/dc/elements/1.1/"
   xmlns:cc="http://creativecommons.org/ns#"
   xmlns:rdf="http://www.w3.org/1999/02/22-rdf-syntax-ns#"
   xmlns:svg="http://www.w3.org/2000/svg"
   xmlns="http://www.w3.org/2000/svg"
   version="1.1"
   width="21.59"
   height="21.136999"
   viewBox="0 0 21.59 21.137"
   id="Capa_1"
   xml:space="preserve"><metadata
   id="metadata39"><rdf:RDF><cc:Work
       rdf:about=""><dc:format>image/svg+xml</dc:format><dc:type
         rdf:resource="http://purl.org/dc/dcmitype/StillImage" /><dc:title></dc:title></cc:Work></rdf:RDF></metadata><defs
   id="defs37" />
<path
   d="M 18.622,8.145 18.077,6.85 c 0,0 1.268,-2.861 1.156,-2.971 L 17.554,2.24 C 17.438,2.127 14.576,3.433 14.576,3.433 L 13.256,2.9 C 13.256,2.9 12.09,0 11.93,0 H 9.561 C 9.396,0 8.317,2.906 8.317,2.906 L 6.999,3.441 c 0,0 -2.922,-1.242 -3.034,-1.131 L 2.289,3.951 C 2.173,4.064 3.507,6.867 3.507,6.867 L 2.962,8.16 C 2.962,8.16 0,9.301 0,9.455 v 2.322 c 0,0.162 2.969,1.219 2.969,1.219 l 0.545,1.291 c 0,0 -1.268,2.859 -1.157,2.969 l 1.678,1.643 c 0.114,0.111 2.977,-1.195 2.977,-1.195 l 1.321,0.535 c 0,0 1.166,2.898 1.327,2.898 h 2.369 c 0.164,0 1.244,-2.906 1.244,-2.906 l 1.322,-0.535 c 0,0 2.916,1.242 3.029,1.133 l 1.678,-1.641 c 0.117,-0.115 -1.22,-2.916 -1.22,-2.916 l 0.544,-1.293 c 0,0 2.963,-1.143 2.963,-1.299 V 9.36 C 21.59,9.199 18.622,8.145 18.622,8.145 z m -4.366,2.423 c 0,1.867 -1.553,3.387 -3.461,3.387 -1.906,0 -3.461,-1.52 -3.461,-3.387 0,-1.867 1.555,-3.385 3.461,-3.385 1.909,0.001 3.461,1.518 3.461,3.385 z"
   id="path3"
   style="fill:#FFFFFF" />
<g
   id="g5">
</g>
<g
   id="g7">
</g>
<g
   id="g9">
</g>
<g
   id="g11">
</g>
<g
   id="g13">
</g>
<g
   id="g15">
</g>
<g
   id="g17">
</g>
<g
   id="g19">
</g>
<g
   id="g21">
</g>
<g
   id="g23">
</g>
<g
   id="g25">
</g>
<g
   id="g27">
</g>
<g
   id="g29">
</g>
<g
   id="g31">
</g>
<g
   id="g33">
</g>
</svg>
