<?xml version="1.0" encoding="UTF-8" standalone="no"?>
<!-- Created with Inkscape (http://www.inkscape.org/) -->

<svg
   xmlns:dc="http://purl.org/dc/elements/1.1/"
   xmlns:cc="http://creativecommons.org/ns#"
   xmlns:rdf="http://www.w3.org/1999/02/22-rdf-syntax-ns#"
   xmlns:svg="http://www.w3.org/2000/svg"
   xmlns="http://www.w3.org/2000/svg"
   version="1.1"
   width="16"
   height="16"
   id="svg3005">
  <metadata
     id="metadata3023">
    <rdf:RDF>
      <cc:Work
         rdf:about="">
        <dc:format>image/svg+xml</dc:format>
        <dc:type
           rdf:resource="http://purl.org/dc/dcmitype/StillImage" />
        <dc:title></dc:title>
      </cc:Work>
    </rdf:RDF>
  </metadata>
  <defs
     id="defs3021" />
  <g
     transform="matrix(0.7930782,0,0,0.7930782,-2.170985,-814.69299)"
     id="g3007">
    <g
       transform="matrix(0.70711,0.70711,-0.70711,0.70711,737.70755,295.48808)"
       id="g3009">
      <g
         id="g3755">
        <path
           d="M 9.78125,0 C 9.4740562,0.689112 9.52068,1.5230853 9.3125,2.1875 L 4.9375,6.59375 C 3.9589608,6.429483 2.9477548,6.5327899 2,6.8125 L 5.03125,9.84375 0.5625,14.3125 0,16 C 0.56929628,15.795626 1.1677378,15.640237 1.71875,15.40625 L 6.15625,10.96875 9.1875,14 c 0.2796823,-0.947783 0.3831528,-1.958937 0.21875,-2.9375 1.500011,-1.4895798 3.000001,-2.979159 4.5,-4.46875 0.601102,-0.031361 1.822138,-0.096137 2,-0.46875 C 13.879892,4.0694803 11.842865,2.0202282 9.78125,0 z"
           transform="matrix(0.89159374,-0.89159374,0.89159374,0.89159374,-2.2655,1037.1345)"
           id="path3011"
           style="fill:#ffffff;fill-opacity:1" />
      </g>
    </g>
  </g>
</svg>
