<?xml version="1.0" encoding="UTF-8" standalone="no"?>
<svg
   xmlns:dc="http://purl.org/dc/elements/1.1/"
   xmlns:cc="http://creativecommons.org/ns#"
   xmlns:rdf="http://www.w3.org/1999/02/22-rdf-syntax-ns#"
   xmlns:svg="http://www.w3.org/2000/svg"
   xmlns="http://www.w3.org/2000/svg"
   xmlns:sodipodi="http://sodipodi.sourceforge.net/DTD/sodipodi-0.dtd"
   xmlns:inkscape="http://www.inkscape.org/namespaces/inkscape"
   height="16"
   version="1.1"
   width="16"
   id="svg3005"
   inkscape:version="0.48.4 r9939"
   sodipodi:docname="pin.svg">
  <metadata
     id="metadata3023">
    <rdf:RDF>
      <cc:Work
         rdf:about="">
        <dc:format>image/svg+xml</dc:format>
        <dc:type
           rdf:resource="http://purl.org/dc/dcmitype/StillImage" />
      </cc:Work>
    </rdf:RDF>
  </metadata>
  <defs
     id="defs3021" />
  <sodipodi:namedview
     pagecolor="#ffffff"
     bordercolor="#666666"
     borderopacity="1"
     objecttolerance="10"
     gridtolerance="10"
     guidetolerance="10"
     inkscape:pageopacity="0"
     inkscape:pageshadow="2"
     inkscape:window-width="1920"
     inkscape:window-height="1058"
     id="namedview3019"
     showgrid="false"
     inkscape:zoom="36.291667"
     inkscape:cx="7.7014925"
     inkscape:cy="8.6934558"
     inkscape:window-x="1912"
     inkscape:window-y="-8"
     inkscape:window-maximized="1"
     inkscape:current-layer="g3009" />
  <g
     transform="matrix(0.7930782,0,0,0.7930782,-2.170985,-814.69299)"
     id="g3007">
    <g
       transform="matrix(0.70711,0.70711,-0.70711,0.70711,737.70755,295.48808)"
       id="g3009">
      <path
         d="m 11,1028.4 v 13 h 1 6.406 c -0.595,-1.1 -1.416,-2.1 -2.406,-2.8 v -8 c 0.616,-0.6 1.131,-1.4 1.531,-2.2 H 12 11 z"
         id="path3011"
         inkscape:connector-curvature="0"
         style="fill:#f5f5f5;fill-opacity:1" />
      <path
         d="m 11,13 v 2 4 2 l 1,2 v -2 -6 -2 h -1 z"
         transform="translate(0,1028.4)"
         id="path3013"
         inkscape:connector-curvature="0"
         style="fill:#f5f5f5;fill-opacity:1" />
      <path
         d="m 12,13 v 2 4 2 2 l 1,-2 v -2 -4 -2 h -1 z"
         transform="translate(0,1028.4)"
         id="path3015"
         inkscape:connector-curvature="0"
         style="fill:#ebebeb;fill-opacity:1" />
      <path
         d="m 6.4688,1028.4 c 0.4006,0.8 0.915,1.6 1.5312,2.2 v 8 c -0.9897,0.7 -1.8113,1.7 -2.4062,2.8 H 12 v -13 H 6.4688 z"
         id="path3017"
         inkscape:connector-curvature="0"
         style="fill:#ffffff;fill-opacity:1" />
    </g>
  </g>
</svg>
