<?xml version="1.0" encoding="UTF-8" standalone="no"?>
<!-- Created with Inkscape (http://www.inkscape.org/) -->

<svg
   xmlns:dc="http://purl.org/dc/elements/1.1/"
   xmlns:cc="http://creativecommons.org/ns#"
   xmlns:rdf="http://www.w3.org/1999/02/22-rdf-syntax-ns#"
   xmlns:svg="http://www.w3.org/2000/svg"
   xmlns="http://www.w3.org/2000/svg"
   version="1.1"
   width="16"
   height="16"
   viewBox="0 0 16 16"
   id="Capa_1"
   xml:space="preserve"><metadata
   id="metadata4357"><rdf:RDF><cc:Work
       rdf:about=""><dc:format>image/svg+xml</dc:format><dc:type
         rdf:resource="http://purl.org/dc/dcmitype/StillImage" /><dc:title></dc:title></cc:Work></rdf:RDF></metadata><defs
   id="defs4355" />
<path
   d="M 13.5,8 C 13.225,8 13,8.224 13,8.5 v 3.793 L 3.707,3 H 7.5 C 7.776,3 8,2.776 8,2.5 8,2.224 7.776,2 7.5,2 h -5 L 2.309,2.039 2.15,2.144 2.146,2.146 2.143,2.152 2.039,2.309 2,2.5 v 5 C 2,7.776 2.224,8 2.5,8 2.776,8 3,7.776 3,7.5 V 3.707 L 12.293,13 H 8.5 C 8.224,13 8,13.225 8,13.5 8,13.775 8.224,14 8.5,14 h 5 l 0.191,-0.039 c 0.121,-0.051 0.22,-0.148 0.27,-0.27 L 14,13.502 V 8.5 C 14,8.224 13.775,8 13.5,8 z"
   id="path4351"
   style="fill:#ffffff;fill-opacity:1" />
</svg>