<?xml version="1.0" encoding="UTF-8" standalone="no"?>
<!-- Created with Inkscape (http://www.inkscape.org/) -->

<svg
   xmlns:dc="http://purl.org/dc/elements/1.1/"
   xmlns:cc="http://creativecommons.org/ns#"
   xmlns:rdf="http://www.w3.org/1999/02/22-rdf-syntax-ns#"
   xmlns:svg="http://www.w3.org/2000/svg"
   xmlns="http://www.w3.org/2000/svg"
   version="1.1"
   width="50"
   height="50"
   viewBox="0 0 50 50"
   id="Layer_1"
   xml:space="preserve"><metadata
   id="metadata3001"><rdf:RDF><cc:Work
       rdf:about=""><dc:format>image/svg+xml</dc:format><dc:type
         rdf:resource="http://purl.org/dc/dcmitype/StillImage" /><dc:title></dc:title></cc:Work></rdf:RDF></metadata><defs
   id="defs2999" />
<path
   d="m 43.04,22.696 -7.568,7.377 1.787,10.417 c 0.127,0.75 -0.182,1.509 -0.797,1.957 -0.348,0.253 -0.762,0.382 -1.176,0.382 -0.318,0 -0.638,-0.076 -0.931,-0.23 L 25,37.681 15.645,42.599 c -0.674,0.355 -1.49,0.295 -2.107,-0.151 C 12.923,42 12.614,41.242 12.743,40.491 L 14.53,30.074 6.962,22.697 C 6.415,22.166 6.221,21.371 6.454,20.647 6.69,19.923 7.315,19.396 8.069,19.286 l 10.459,-1.521 4.68,-9.478 C 23.543,7.603 24.239,7.171 25,7.171 c 0.763,0 1.456,0.432 1.793,1.115 l 4.679,9.478 10.461,1.521 c 0.752,0.109 1.379,0.637 1.612,1.361 0.237,0.724 0.038,1.519 -0.505,2.05 z"
   id="path2995"
   style="fill:#ffcc00;fill-opacity:1" />
</svg>
